<?xml version="1.0" encoding="UTF-8" standalone="no"?>
<!-- Created with Inkscape (http://www.inkscape.org/) -->

<svg
   xmlns:dc="http://purl.org/dc/elements/1.1/"
   xmlns:cc="http://creativecommons.org/ns#"
   xmlns:rdf="http://www.w3.org/1999/02/22-rdf-syntax-ns#"
   xmlns:svg="http://www.w3.org/2000/svg"
   xmlns="http://www.w3.org/2000/svg"
   xmlns:sodipodi="http://sodipodi.sourceforge.net/DTD/sodipodi-0.dtd"
   xmlns:inkscape="http://www.inkscape.org/namespaces/inkscape"
   width="733.32281"
   height="669.02557"
   id="svg2"
   version="1.1"
   inkscape:version="0.47pre4 "
   sodipodi:docname="leavesSVG-MissVickieDOTnet">
  <defs
     id="defs4">
    <inkscape:perspective
       sodipodi:type="inkscape:persp3d"
       inkscape:vp_x="0 : 526.18109 : 1"
       inkscape:vp_y="0 : 1000 : 0"
       inkscape:vp_z="744.09448 : 526.18109 : 1"
       inkscape:persp3d-origin="372.04724 : 350.78739 : 1"
       id="perspective10" />
    <inkscape:perspective
       id="perspective2827"
       inkscape:persp3d-origin="250 : 166.66667 : 1"
       inkscape:vp_z="500 : 250 : 1"
       inkscape:vp_y="0 : 1000 : 0"
       inkscape:vp_x="0 : 250 : 1"
       sodipodi:type="inkscape:persp3d" />
    <inkscape:perspective
       id="perspective2843"
       inkscape:persp3d-origin="250 : 166.66667 : 1"
       inkscape:vp_z="500 : 250 : 1"
       inkscape:vp_y="0 : 1000 : 0"
       inkscape:vp_x="0 : 250 : 1"
       sodipodi:type="inkscape:persp3d" />
    <inkscape:perspective
       id="perspective2858"
       inkscape:persp3d-origin="250 : 166.66667 : 1"
       inkscape:vp_z="500 : 250 : 1"
       inkscape:vp_y="0 : 1000 : 0"
       inkscape:vp_x="0 : 250 : 1"
       sodipodi:type="inkscape:persp3d" />
    <inkscape:perspective
       id="perspective2874"
       inkscape:persp3d-origin="250 : 166.66667 : 1"
       inkscape:vp_z="500 : 250 : 1"
       inkscape:vp_y="0 : 1000 : 0"
       inkscape:vp_x="0 : 250 : 1"
       sodipodi:type="inkscape:persp3d" />
    <inkscape:perspective
       id="perspective2890"
       inkscape:persp3d-origin="250 : 166.66667 : 1"
       inkscape:vp_z="500 : 250 : 1"
       inkscape:vp_y="0 : 1000 : 0"
       inkscape:vp_x="0 : 250 : 1"
       sodipodi:type="inkscape:persp3d" />
  </defs>
  <sodipodi:namedview
     id="base"
     pagecolor="#ffffff"
     bordercolor="#666666"
     borderopacity="1.0"
     inkscape:pageopacity="0.0"
     inkscape:pageshadow="2"
     inkscape:zoom="0.69205128"
     inkscape:cx="366.6614"
     inkscape:cy="334.5128"
     inkscape:document-units="px"
     inkscape:current-layer="layer1"
     showgrid="false"
     inkscape:window-width="1280"
     inkscape:window-height="708"
     inkscape:window-x="-4"
     inkscape:window-y="-4"
     inkscape:window-maximized="1" />
  <metadata
     id="metadata7">
    <rdf:RDF>
      <cc:Work
         rdf:about="">
        <dc:format>image/svg+xml</dc:format>
        <dc:type
           rdf:resource="http://purl.org/dc/dcmitype/StillImage" />
        <dc:title></dc:title>
      </cc:Work>
    </rdf:RDF>
  </metadata>
  <g
     inkscape:label="Layer 1"
     inkscape:groupmode="layer"
     id="layer1"
     transform="translate(-1.9037872e-6,-383.33664)">
    <g
       inkscape:label="Calque 1"
       id="layer1-7"
       transform="matrix(-0.57832263,0,0,-0.57832263,284.98035,966.22506)"
       style="fill:#808000">
      <path
         style="fill:#808000;fill-opacity:1"
         sodipodi:nodetypes="ccccccccccccccccccccccccccccccccccc"
         id="path1409"
         d="m 40.422641,454.44332 c 4.909573,-8.02825 7.727498,-16.21196 -3.5891,-24.77413 C 22.293449,409.78228 19.020828,385.40213 9.6703561,362.89108 2.4002093,343.47414 11.164524,305.76038 38.733999,317.03778 57.5966,328.76915 64.361639,300.9501 50.261746,291.56801 42.496593,271.03878 63.036744,234.52136 85.294904,256.3112 c 18.508136,3.41105 -1.287511,-29.30603 -3.141871,-39.55961 -1.570514,-18.88559 5.472443,-50.33496 30.201427,-47.33885 14.68463,3.91344 37.19172,19.62976 39.85362,-7.11784 2.14764,-22.16619 -2.77761,-46.07331 8.31347,-67.08508 6.8164,-29.686199 42.67013,-23.264626 54.11103,-0.54826 14.18511,11.83107 26.05926,-21.116737 28.9773,-32.848781 7.1655,-18.605639 21.55464,-43.60981 44.80006,-40.618949 16.92879,1.992907 12.11083,29.845293 25.90856,32.870851 17.54085,-8.182916 25.27291,-33.437665 48.44445,-31.985916 24.39588,-5.817574 10.77605,39.898692 32.10567,28.191956 10.1313,-14.88775 28.41737,-19.844673 40.77547,-8.748668 20.70607,-14.227553 44.37759,4.387454 31.28789,27.229373 -10.12907,16.991571 23.25062,21.023501 6.89687,39.519874 -7.44533,8.12267 -31.18363,23.57413 -6.09156,25.86748 27.9138,0.17368 33.45388,35.75051 11.70008,49.38495 -16.61923,4.67559 -39.46838,24.35865 -11.35313,33.13765 28.12429,16.11633 -4.74419,49.60543 -26.48433,52.5506 -13.64815,-1.27912 -48.1236,3.44102 -23.18048,20.01962 26.72879,15.08948 6.07147,46.94629 -16.1059,53.74775 -22.08437,0.83994 -44.26386,9.59135 -65.52068,0.78334 -19.73397,9.34586 17.41656,41.65796 -8.65407,55.77603 -14.424,9.72558 -32.71419,0.74986 -50.31077,6.40896 -7.33372,12.08428 -32.78594,-12.97598 -24.83501,2.19581 13.63174,14.2077 16.07002,44.6378 -6.80705,51.09232 -22.28281,7.42361 -46.93664,1.01125 -67.20124,-6.93947 2.29203,56.11116 -46.30854,5.30353 -66.66668,13.03762 -17.960857,11.11579 -41.173711,1.41778 -39.60144,-20.55074 -18.176126,-9.1599 -55.475445,59.47983 -70.9374927,58.31601 3.8985121,-13.16384 34.9140867,-44.32445 38.6435437,-48.65591 z" />
    </g>
    <g
       inkscape:label="Calque 1"
       id="layer1-0"
       transform="matrix(0.57832263,0,0,0.57832263,23.908989,404.42594)"
       style="fill:#aa0000">
      <path
         style="fill:#aa0000;fill-opacity:1"
         id="path1617"
         d="m 476.29863,494.8876 c -13.90135,-34.70364 -28.9609,-78.56465 -69.02728,-91.91115 -27.09845,-1.29793 -54.15662,11.45237 -80.95336,4.51564 -34.79327,3.71437 28.21058,-21.01183 9.2731,-32.4342 -21.20572,-1.47811 -42.6148,4.09017 -64.04891,2.94767 -12.02567,2.76391 -21.7042,3.299 -7.34384,-8.02574 16.058,-9.23274 29.33915,-33.45497 1.49191,-35.20655 -26.75897,-0.99498 -53.33341,4.85263 -79.84583,7.2493 -6.73479,-16.39863 -35.99757,-7.11371 -50.20627,-18.53459 19.75142,-11.09098 38.06406,-24.61711 58.2209,-34.96748 20.75079,-23.53787 -27.18134,-25.40946 -42.49439,-27.09445 -20.92053,-2.70563 -42.49807,1.74036 -62.240054,7.43957 -9.150042,0.30272 0.605917,-20.23294 -15.616655,-20.09149 -18.801182,-4.76542 -34.748129,-12.75267 -52.271074,-21.32111 23.426914,2.27241 34.96253,-18.43613 53.492404,-23.87268 17.240645,-3.23473 59.780999,-3.8649 50.066149,-30.88621 C 117.88729,154.81694 74.447057,159.77262 84.145074,141.18997 74.319969,128.79235 43.706485,113.16284 44.348567,104.26574 61.153336,111.334 103.68561,103.57486 78.459241,81.416654 70.262812,72.617487 68.045252,60.34479 57.179652,52.850377 77.142605,45.373552 31.763708,21.800506 64.058229,23.844168 c 14.499804,6.445592 34.02537,13.009622 34.00378,-5.865379 12.051961,15.866657 32.463951,18.277815 46.739491,31.54574 23.6201,13.319536 22.80156,-29.410211 28.40803,-44.3628816 11.37472,-1.6653636 13.64965,39.0593846 32.24052,33.7784326 4.42183,22.278377 11.01232,44.976627 23.06678,64.36197 6.05562,13.6988 27.45213,32.07727 29.59934,5.16796 5.78813,-15.758401 10.59241,-31.855927 14.11741,-48.271346 12.35508,-4.42165 13.2538,-25.637444 20.65121,-36.463701 2.75946,-10.607182 9.86299,-30.3932155 11.51744,-7.769478 7.19923,16.287322 3.69658,51.410841 24.871,50.230033 -6.28352,24.690063 0.65673,50.242492 -2.13058,75.312062 -1.13889,15.21599 8.01069,57.87023 24.44596,29.10588 12.79188,-21.03042 34.34775,-33.74149 49.11341,-53.24678 7.60836,10.13063 -12.44357,45.96688 4.72313,53.55315 -4.06598,20.38729 -20.37091,39.75956 -22.54362,61.24961 1.22001,23.17699 50.18078,-22.65346 35.04572,3.312 -7.09832,19.62825 -12.25797,40.23607 -22.49454,58.65425 2.20772,22.92782 43.89288,-22.65542 35.55029,2.35312 0.13383,18.58454 -23.48002,38.6354 -12.77002,54.44483 7.62893,-7.56954 31.74334,-17.3123 17.86108,2.48826 -12.04915,18.89458 -4.94402,39.3689 7.16958,61.86292 10.43058,14.57477 48.20027,73.81792 33.05499,79.60278 z"
         sodipodi:nodetypes="ccccccccccccccccccccccccccccccccccccccccccc" />
    </g>
    <g
       inkscape:label="Calque 1"
       id="layer1-4"
       transform="matrix(0.57832263,0,0,-0.57832263,223.84339,1055.452)"
       style="fill:#d35f5f">
      <path
         style="fill:#d35f5f;fill-opacity:1"
         id="path1403"
         d="m 233.21155,492.22786 c 0.77461,-20.47544 12.72775,-41.22824 12.88889,-63.65677 0.93945,-20.37723 -11.24119,-46.49133 -34.04723,-38.59168 -24.02129,2.73435 -45.06782,12.32765 -69.74324,11.70811 -10.29277,-1.65698 -22.93796,4.83687 -31.74447,-1.6376 C 112.18999,379.24941 74.946361,388.10781 74.65755,368.08388 91.965303,355.91297 55.180935,354.52425 60.42424,338.60461 52.359075,326.8025 14.760704,313.30866 45.087753,306.34454 c 9.711245,-8.77716 47.018113,-9.91799 21.222199,-25.57042 -1.000281,-11.95909 -4.609081,-22.39044 -15.669936,-31.88892 14.827552,-7.94299 4.574051,-27.69592 5.5672,-43.25204 -7.893946,-16.74151 -0.645407,-23.96816 16.6654,-18.30483 8.58087,4.24983 11.686319,-8.83931 19.654147,-4.66945 14.492447,4.57303 19.233367,-16.06556 33.535977,-2.58173 -4.31927,-13.16482 -19.31218,-45.17354 9.33502,-33.71394 17.68031,-1.83283 -14.21813,-44.47181 13.63078,-34.27132 27.14912,-0.98587 -6.6367,-50.188483 24.52077,-43.411199 6.7425,-20.045382 25.05169,-34.793077 27.83696,-58.304004 6.11034,-17.9425829 21.73886,17.604329 32.04865,20.743785 6.89992,22.642879 37.05082,20.108983 41.01182,42.698758 17.16773,-1.932333 7.26537,29.49042 26.61733,17.266721 24.78954,-11.135342 -9.23424,46.940169 23.00389,33.132039 13.4322,3.12449 -12.4123,44.70976 6.51415,23.98346 4.27212,-15.20318 12.71471,-13.72723 21.8635,-3.70293 19.04307,-14.21975 43.10245,-4.94625 63.76419,-16.47244 5.18392,1.82852 0.33908,26.86075 5.36219,36.58526 3.4979,12.11164 10.15787,20.4545 -0.0107,33.56379 2.21196,9.39855 22.9703,8.38473 7.97907,21.07424 -14.8383,14.95059 -14.94218,33.56845 -23.44397,49.74359 20.42589,2.70087 40.23849,8.40925 60.454,13.69624 -1.94371,9.56947 -27.1835,22.61201 -29.08417,38.56692 -13.90407,5.84724 6.55453,22.73964 -14.1878,24.8807 -22.11568,4.32791 17.04235,27.44909 -11.84012,27.33657 -19.40967,2.52451 -29.31408,25.99217 -50.01993,19.64152 -20.75922,-10.97365 -40.54596,2.3934 -59.04574,-10.25376 -27.51116,-10.48105 -42.79751,14.34257 -46.583,38.79717 -3.35073,22.63702 -10.89095,44.86415 -10.48414,67.90838 -0.74903,5.68735 -8.87646,6.66027 -12.09396,2.66116 l 2e-5,0 z"
         sodipodi:nodetypes="ccccccccccccccccccccccccccccccccccccccc" />
    </g>
    <g
       inkscape:label="Calque 1"
       id="layer1-8"
       transform="matrix(-0.57832263,0,0,0.57832263,609.35657,379.75846)"
       style="fill:#ff9955">
      <path
         style="fill:#ff9955;fill-opacity:1"
         id="path1451"
         d="m 317.14468,490.63077 c -11.32721,-1.28631 -7.09924,-22.18526 -19.68906,-5.80919 -12.87388,3.85922 -31.28565,15.09972 -40.02926,3.41634 -19.59377,4.04464 -27.60079,-7.77971 -46.85872,-5.54835 -26.75755,-5.25017 1.22286,-24.11897 7.02349,-35.47015 -1.80353,-6.80515 -30.41033,10.19622 -37.02444,-2.6191 -20.97121,5.28465 -38.73406,-8.01994 -58.89141,-14.8558 -3.75268,-10.16159 22.6119,-25.0888 -3.25572,-20.11652 -11.5915,-7.78315 -24.55304,-9.78015 -39.600177,-17.9769 16.53195,-19.37335 -22.382818,-16.14674 -24.664397,-29.27252 -12.446985,-6.37944 -37.298575,-5.99272 -40.979139,-20.68616 20.682046,-4.44992 29.532734,-14.58309 47.844644,-20.36768 -5.623483,-14.03877 18.581695,-9.0494 24.540285,-16.53794 13.099411,-0.27618 23.854114,-0.19992 22.509394,-15.25428 19.19891,-1.10669 35.57944,5.77178 53.13273,8.0301 17.95684,7.50021 26.654,-0.84881 7.98684,-12.61839 -19.36264,-14.22578 -26.54157,-23.885 -46.21939,-39.68004 -6.02843,-9.39223 13.89975,-13.15439 -3.02567,-20.84694 -5.58357,-6.33627 -16.00521,-14.67537 -4.643,-21.00071 -4.20873,-11.89572 -22.349655,-29.02516 -12.25807,-39.77833 14.71818,0.66029 35.49129,3.33043 22.15462,-16.66022 -0.1301,-12.12728 -22.96464,-26.42663 1.38031,-29.30561 11.79811,-4.28363 -17.59589,-25.55113 4.08329,-28.472725 -8.63041,-10.170155 -9.28245,-19.810947 -8.12769,-28.77337 -8.26745,-13.016579 -8.79149,-29.677965 -20.17723,-42.44798 -13.741414,-29.097988 32.54308,3.25883 36.62431,15.911301 10.20549,12.712763 23.6597,17.200125 30.45375,31.065027 5.36902,-22.39922 23.93588,12.775879 33.22439,1.857173 7.44802,11.980235 18.38873,-18.251494 27.37531,2.418152 8.12395,2.264361 8.18494,15.605904 18.55261,14.285538 3.00337,13.307767 11.78206,22.290464 19.04158,5.078084 16.56658,-24.149304 20.01683,22.55203 32.35639,19.09208 3.63095,19.0904 12.99558,34.26596 17.17442,52.2884 9.13522,2.51097 5.67643,32.17774 14.74736,29.55832 10.28214,-15.46107 6.78901,-33.95174 14.29935,-49.32597 1.41266,-9.32032 10.22842,-20.21859 18.25588,-8.96551 12.26837,-8.38307 11.21718,-29.3789 24.61619,-27.55681 4.43118,-9.011353 18.01103,-32.143938 27.69955,-25.762999 -2.3913,20.364833 -1.83417,39.460389 6.39051,53.046109 -3.12399,10.39383 -2.92681,19.80009 9.31697,18.73833 3.5371,13.70199 -10.67096,42.55094 12.52684,29.86364 5.02578,15.2403 10.30601,25.80015 5.8586,41.10884 -6.45957,11.20235 11.11496,14.68558 -3.0782,27.79763 -4.40002,10.48574 -3.55504,27.14982 10.44998,15.30985 19.45706,-10.63029 37.53407,-10.06821 27.50534,16.81082 6.3639,15.32601 -6.02224,30.4457 -5.61444,42.71672 4.46296,13.50975 -16.16161,27.88559 -21.71609,40.30866 -2.45506,5.30031 1.86713,20.60893 -14.14227,21.35675 -20.78635,10.92511 -41.16816,2.57451 -62.55962,-0.66761 15.60844,21.60366 33.40616,41.62488 49.31095,63.01475 6.21842,22.6528 -21.03951,-15.37807 -26.99657,-22.09877 -11.67908,-14.33953 -22.68876,-29.87565 -36.14491,-42.3561 5.73954,23.8416 0.0805,48.1228 -7.73066,70.76345 -13.34571,9.5196 -20.1774,26.15836 -34.52269,34.3998 -2.77153,1.02956 -5.4668,2.51634 -8.48706,2.59681 z" />
    </g>
    <g
       inkscape:label="Calque 1"
       id="layer1-45"
       transform="matrix(0,-0.57832263,-0.57832263,0,737.72436,967.87741)">
      <path
         style="fill:#1d4300;fill-opacity:1"
         id="path1394"
         d="m 304.70627,479.33973 c -3.62249,-3.04766 -17.19427,-2.13966 -17.94983,-8.7968 -7.06075,0.11099 -22.13402,-10.63578 -20.39452,-14.05609 8.11451,-0.72849 21.34221,-4.84408 25.33688,-9.67818 -15.03543,1.45051 -26.92073,-8.59528 -40.857,-12.34471 -11.69714,-1.39081 2.61204,-10.18643 -10.58879,-9.15577 -14.84529,-2.15994 -19.2217,-14.30883 -30.87784,-19.47434 -6.19839,-6.88083 -9.81216,-11.32225 -18.10101,-17.4787 -10.05456,-9.78569 -2.94746,-10.40664 6.05389,-12.35784 19.85808,-4.09732 -5.67565,-14.11597 -11.07183,-21.56218 -5.19057,-4.16243 0.11718,-10.37106 -9.67592,-12.35732 -8.41594,-9.9658 -18.06299,-14.37729 -25.63835,-26.14324 7.58602,-1.97897 23.03162,-1.95759 26.26063,-6.54002 -10.9033,-8.42241 -20.20222,-18.45629 -27.85439,-29.77571 5.8827,-1.09079 11.97452,-9.27379 16.22412,-7.17551 -10.03984,-7.14678 -18.73089,-16.2227 -25.67629,-24.22045 -5.38676,-6.17275 -27.80966,-19.95757 -9.52319,-21.4084 13.80514,-3.92667 -11.41188,-15.75704 -13.0616,-23.98843 -14.32507,-8.54904 15.52984,-7.922 1.95326,-14.38227 -6.29972,-6.21126 -19.26167,-19.39556 -14.59096,-25.70615 9.60754,-7.09507 -12.824551,-15.02603 -13.094495,-24.96419 -6.107211,-5.18823 7.968811,-5.9612 -1.855779,-11.52572 C 83.177681,119.65498 72.361655,110.14724 75.747507,103.55628 67.240751,95.594129 58.473504,85.211896 54.190522,76.494961 43.022848,68.816758 38.384497,57.224931 29.002149,48.330066 22.188987,40.028795 15.549244,30.147758 9.8354303,20.009175 6.2385143,14.503313 3.2122073,0.08230197 10.778932,12.543433 c 7.297716,10.400693 16.195488,19.188808 24.555096,28.383084 4.999944,10.300874 10.800052,4.722774 16.653419,15.750275 5.998117,3.719975 13.040492,12.197562 19.076712,15.726668 5.854923,-6.101679 14.727852,24.516599 21.502158,11.967571 4.24888,6.393703 13.249633,16.245329 18.482483,20.222099 4.96305,-8.471261 10.05182,5.44779 15.57423,7.35879 5.14344,8.67852 8.53892,10.80628 11.92003,1.4684 6.6017,4.87817 17.07683,15.12494 21.83406,16.38361 0.56043,-11.64517 7.3225,-13.15809 11.45643,-1.95916 7.87891,-3.67155 17.71072,25.93442 18.4794,8.15959 2.87348,-9.2337 10.70839,5.40195 14.71039,4.5512 6.07808,1.07644 16.82172,20.40462 16.81062,3.65493 3.36609,-7.05132 3.66533,-7.3373 10.4496,-2.42269 4.19103,5.63307 10.72411,6.9406 14.84352,14.77951 5.41413,-4.25637 18.30008,21.88194 16.57208,3.27004 4.10699,-3.81669 1.85791,-12.73049 8.12634,-2.79683 7.35932,6.82762 16.82732,9.79417 21.91448,21.2233 1.88508,9.24456 6.5801,-6.15056 10.03041,5.41948 5.38412,3.69967 9.08199,14.01908 14.12716,15.24339 1.68261,-9.89736 4.22545,-20.05931 6.85174,-26.35327 8.31644,7.86879 13.25559,11.31933 18.55643,21.8279 0.77142,9.54643 8.71119,0.81037 11.23542,11.21002 2.90398,6.71464 3.24106,15.44673 9.70141,9.1368 6.19918,6.01917 7.88195,16.84958 13.00404,17.27718 3.62279,6.92147 8.30121,19.61338 9.57076,3.9763 4.02611,-6.20185 5.79916,-19.51297 10.06393,-22.2091 6.89168,4.8791 6.73108,20.60982 14.30882,19.11916 4.68708,6.49485 2.51799,21.82267 11.0555,17.33695 3.9134,8.37156 6.66277,19.37763 8.52264,26.77549 8.57444,-7.45326 6.55395,15.44328 12.53989,16.86603 0.80099,6.21957 5.37695,23.81821 6.60552,7.20936 3.78387,-5.02478 1.72377,-21.75479 6.9809,-20.95846 8.044,5.72479 13.33499,10.86751 15.43723,21.34876 9.83571,-10.53861 2.47527,19.37905 9.70304,14.98638 5.84554,-1.65231 4.14549,16.49441 2.05074,21.3741 11.87388,-8.99943 6.37623,12.88925 8.66319,17.89557 -0.34123,6.00907 -5.7812,13.1745 1.16591,13.17539 -3.33919,15.18408 2.11298,22.77291 -8.93469,34.86236 -9.08296,3.33343 -24.21126,4.12057 -23.95827,18.86024 -2.78849,13.41211 -5.6344,29.51432 -14.24258,39.52323 0.47531,4.68899 -7.94279,11.00322 -15.69197,9.47598 -13.35344,5.23101 -24.83446,19.04812 -38.37631,17.66871 -8.41784,4.55098 -25.92917,4.5766 -26.43456,-3.48535 -9.42895,4.76702 -31.512,5.88636 -34.43133,-3.8842 -7.78884,1.15103 -21.13767,3.11695 -27.36455,-1.87662 l 0.22587,-0.72587 z" />
    </g>
  </g>
</svg>
